<svg width="24" height="24" viewBox="0 0 24 24" fill="none" xmlns="http://www.w3.org/2000/svg">
<path fill-rule="evenodd" clip-rule="evenodd" d="M0 0H20.667V3.33307H19.3337V1.33323H1.33336V16.6653H15.5916V17.9986H0V0ZM20.0003 8.66597C20.5308 8.66597 21.0395 8.45527 21.4146 8.08023C21.7896 7.70519 22.0004 7.19652 22.0004 6.66613C22.0004 6.13574 21.7896 5.62707 21.4146 5.25203C21.0395 4.87699 20.5308 4.66629 20.0003 4.66629C19.4699 4.66629 18.9612 4.87699 18.5861 5.25203C18.211 5.62707 18.0003 6.13574 18.0003 6.66613C18.0003 7.19652 18.211 7.70519 18.5861 8.08023C18.9612 8.45527 19.4699 8.66597 20.0003 8.66597ZM21.3544 10.0059C22.2204 10.0059 22.9057 10.3952 23.3544 10.9964C23.7737 11.5597 23.9511 12.2563 23.9911 12.8996C24.0302 13.5595 23.9403 14.2207 23.7264 14.8461C23.5264 15.4261 23.1884 16.026 22.667 16.4373V22.9982C22.6675 23.2494 22.5734 23.4916 22.4034 23.6766C22.2334 23.8616 22 23.9758 21.7496 23.9966C21.4992 24.0173 21.2502 23.9431 21.0521 23.7886C20.8539 23.6341 20.7212 23.4107 20.6803 23.1628L19.8203 17.9986H19.6217L18.6496 23.1821C18.6035 23.4268 18.4677 23.6454 18.2689 23.7953C18.0701 23.9451 17.8225 24.0154 17.5746 23.9924C17.3266 23.9694 17.0962 23.8548 16.9284 23.6709C16.7605 23.487 16.6673 23.2471 16.6669 22.9982V13.4876C16.5336 13.6906 16.4021 13.8949 16.2723 14.1002L16.2203 14.1822L16.2069 14.2035L16.2036 14.2095C16.1138 14.3538 15.9886 14.4728 15.84 14.5552C15.6914 14.6377 15.5242 14.6809 15.3543 14.6808H12.0209C11.7556 14.6808 11.5013 14.5755 11.3137 14.388C11.1262 14.2004 11.0208 13.9461 11.0208 13.6809C11.0208 13.4157 11.1262 13.1614 11.3137 12.9739C11.5013 12.7863 11.7556 12.681 12.0209 12.681H14.8056C14.9676 12.4303 15.1809 12.105 15.4049 11.7784C15.6383 11.4377 15.8956 11.0771 16.1249 10.7945C16.2363 10.6565 16.3609 10.5125 16.4863 10.3945C16.5476 10.3365 16.6329 10.2612 16.7369 10.1945C16.9205 10.0741 17.1348 10.0088 17.3543 10.0065H21.3544V10.0059Z" fill="white"/>
</svg>
