<svg width="11" height="11" viewBox="0 0 11 11" fill="none" xmlns="http://www.w3.org/2000/svg">
<path d="M9.84039 1.99375L9.22623 1.73708V5.87583L10.34 3.19C10.5279 2.7225 10.3125 2.18625 9.84039 1.99375ZM0.902894 3.68958L3.17623 9.16667C3.24317 9.33331 3.35736 9.47675 3.50474 9.57935C3.65213 9.68195 3.82629 9.73924 4.00581 9.74417C4.12498 9.74417 4.24873 9.72125 4.36789 9.67083L7.74581 8.27292C8.08956 8.13083 8.30039 7.79167 8.30956 7.4525C8.31414 7.33333 8.29123 7.20042 8.24998 7.08125L5.95831 1.60417C5.89353 1.43643 5.77975 1.29207 5.63179 1.18989C5.48383 1.0877 5.30854 1.03243 5.12873 1.03125C5.00956 1.03125 4.89039 1.05875 4.77581 1.1L1.40248 2.49792C1.17824 2.58974 0.999653 2.76686 0.90597 2.99032C0.812288 3.21378 0.811181 3.4653 0.902894 3.68958ZM8.30498 1.94792C8.30498 1.7048 8.2084 1.47164 8.03649 1.29974C7.86458 1.12783 7.63143 1.03125 7.38831 1.03125H6.72373L8.30498 4.85375" fill="#005857"/>
</svg>
