<svg width="15" height="15" viewBox="0 0 9 9" fill="none" xmlns="http://www.w3.org/2000/svg">
<path d="M1.07141 2.7857H7.94013M1.92855 1.07141H7.08298C7.19555 1.07141 7.307 1.09358 7.411 1.13666C7.51499 1.17973 7.60948 1.24287 7.68908 1.32246C7.76867 1.40206 7.83181 1.49655 7.87488 1.60054C7.91796 1.70453 7.94013 1.81599 7.94013 1.92855V7.06712C7.9402 7.28337 7.85852 7.49165 7.71149 7.65022C7.56445 7.80878 7.36291 7.90591 7.14727 7.92213L7.0787 7.9247L1.92427 7.89984C1.69768 7.89871 1.48077 7.8079 1.32095 7.64728C1.16113 7.48666 1.07141 7.26928 1.07141 7.0427V1.92855C1.07141 1.70123 1.16172 1.48321 1.32246 1.32246C1.48321 1.16172 1.70123 1.07141 1.92855 1.07141V1.07141Z" stroke="#CBCBCB" stroke-linecap="round" stroke-linejoin="round"/>
<path d="M2.78575 4.92855C3.02244 4.92855 3.21432 4.73668 3.21432 4.49998C3.21432 4.26329 3.02244 4.07141 2.78575 4.07141C2.54906 4.07141 2.35718 4.26329 2.35718 4.49998C2.35718 4.73668 2.54906 4.92855 2.78575 4.92855Z" fill="#CBCBCB"/>
</svg>
