<svg width="17" height="17" viewBox="0 0 17 17" fill="none" xmlns="http://www.w3.org/2000/svg">
<path fill-rule="evenodd" clip-rule="evenodd" d="M4.59383 13.0535C7.50296 12.6285 9.50598 12.665 12.4189 13.0683C12.6299 13.0989 12.8226 13.2048 12.9616 13.3664C13.1006 13.528 13.1764 13.7345 13.175 13.9477C13.175 14.1517 13.1049 14.3497 12.9782 14.5044C12.7575 14.7741 12.5313 15.0394 12.2999 15.3H13.4224C13.4929 15.2159 13.5639 15.13 13.6357 15.0429C13.8878 14.7337 14.0253 14.347 14.025 13.9481C14.025 13.0875 13.3969 12.3458 12.5354 12.2268C9.55358 11.8142 7.46938 11.7746 4.47101 12.2128C3.60061 12.3399 2.97501 13.093 2.97501 13.9596C2.97501 14.3442 3.10038 14.7246 3.33796 15.0327C3.40808 15.1236 3.47736 15.2129 3.54621 15.3004H4.64143C4.42614 15.0427 4.21614 14.7805 4.01158 14.5142C3.89002 14.3547 3.82444 14.1596 3.82501 13.9591C3.82501 13.5014 4.15396 13.1176 4.59383 13.0535ZM8.50001 8.92501C8.83488 8.92501 9.16647 8.85905 9.47585 8.7309C9.78523 8.60275 10.0663 8.41492 10.3031 8.17813C10.5399 7.94134 10.7277 7.66023 10.8559 7.35085C10.984 7.04147 11.05 6.70988 11.05 6.37501C11.05 6.04014 10.984 5.70854 10.8559 5.39916C10.7277 5.08978 10.5399 4.80867 10.3031 4.57188C10.0663 4.33509 9.78523 4.14726 9.47585 4.01911C9.16647 3.89096 8.83488 3.82501 8.50001 3.82501C7.8237 3.82501 7.1751 4.09367 6.69688 4.57188C6.21867 5.0501 5.95001 5.6987 5.95001 6.37501C5.95001 7.05131 6.21867 7.69991 6.69688 8.17813C7.1751 8.65635 7.8237 8.92501 8.50001 8.92501ZM8.50001 9.77501C9.40174 9.77501 10.2665 9.41679 10.9042 8.77917C11.5418 8.14155 11.9 7.27674 11.9 6.37501C11.9 5.47327 11.5418 4.60847 10.9042 3.97084C10.2665 3.33322 9.40174 2.97501 8.50001 2.97501C7.59827 2.97501 6.73347 3.33322 6.09584 3.97084C5.45822 4.60847 5.10001 5.47327 5.10001 6.37501C5.10001 7.27674 5.45822 8.14155 6.09584 8.77917C6.73347 9.41679 7.59827 9.77501 8.50001 9.77501Z" fill="white"/>
<path fill-rule="evenodd" clip-rule="evenodd" d="M8.5 16.15C12.7249 16.15 16.15 12.7249 16.15 8.5C16.15 4.27507 12.7249 0.85 8.5 0.85C4.27507 0.85 0.85 4.27507 0.85 8.5C0.85 12.7249 4.27507 16.15 8.5 16.15ZM8.5 17C13.1946 17 17 13.1946 17 8.5C17 3.80545 13.1946 0 8.5 0C3.80545 0 0 3.80545 0 8.5C0 13.1946 3.80545 17 8.5 17Z" fill="white"/>
</svg>
