<svg width="15" height="15" viewBox="0 0 9 9" fill="none" xmlns="http://www.w3.org/2000/svg">
<path d="M3.62385 7.2797C3.62326 7.39421 3.64523 7.50771 3.6885 7.61373C3.73178 7.71975 3.79551 7.81621 3.87606 7.89759C3.95661 7.97898 4.05241 8.04371 4.15797 8.08807C4.26354 8.13244 4.37681 8.15558 4.49132 8.15617C4.72258 8.15736 4.94484 8.06664 5.10921 7.90396C5.27358 7.74127 5.36659 7.51996 5.36779 7.2887V7.2797M6.9891 6.12714V4.02564C6.98877 3.46625 6.79995 2.9233 6.45313 2.48442C6.1063 2.04553 5.62169 1.73632 5.07754 1.6067V1.42201C5.0748 1.26959 5.01233 1.12433 4.90357 1.01751C4.79481 0.910684 4.64845 0.85083 4.496 0.85083C4.34356 0.85083 4.1972 0.910684 4.08844 1.01751C3.97968 1.12433 3.91721 1.26959 3.91447 1.42201V1.60876C3.37215 1.73986 2.88963 2.04943 2.54442 2.48775C2.1992 2.92607 2.01133 3.4677 2.01097 4.02564V6.12714L1.22253 6.91558V7.2797H7.77754V6.91558L6.9891 6.12714Z" stroke="#CBCBCB" stroke-linecap="round" stroke-linejoin="round"/>
</svg>
