<svg width="5" height="5" viewBox="0 0 17 17" fill="none" xmlns="http://www.w3.org/2000/svg">
<path d="M10.2269 0C10.3588 4.05063e-06 10.4873 0.0408047 10.5939 0.116526C10.7005 0.192247 10.7797 0.298981 10.82 0.421357L11.5053 2.49657C11.7932 2.63379 12.0685 2.788 12.3314 2.96164L14.5194 2.50264C14.6484 2.4758 14.7828 2.48956 14.9033 2.54193C15.0237 2.5943 15.124 2.68259 15.1897 2.79407L16.9167 5.70714C16.9826 5.81856 17.0105 5.94751 16.9964 6.0754C16.9823 6.20329 16.9269 6.3235 16.8382 6.41871L15.3367 8.03371C15.3586 8.3434 15.3586 8.65418 15.3367 8.96386L16.8382 10.5813C16.9269 10.6765 16.9823 10.7967 16.9964 10.9246C17.0105 11.0525 16.9826 11.1814 16.9167 11.2929L15.1897 14.2071C15.1239 14.3184 15.0235 14.4064 14.903 14.4586C14.7826 14.5107 14.6482 14.5243 14.5194 14.4974L12.3314 14.0384C12.0698 14.2108 11.7932 14.3662 11.5066 14.5034L10.82 16.5786C10.7797 16.701 10.7005 16.8078 10.5939 16.8835C10.4873 16.9592 10.3588 17 10.2269 17H6.77306C6.64116 17 6.51267 16.9592 6.40608 16.8835C6.2995 16.8078 6.22033 16.701 6.17997 16.5786L5.49592 14.5046C5.20887 14.3678 4.93199 14.2116 4.66734 14.0371L2.48062 14.4974C2.35162 14.5242 2.2172 14.5104 2.09674 14.4581C1.97627 14.4057 1.87597 14.3174 1.81028 14.2059L0.0833388 11.2929C0.0173942 11.1814 -0.0105379 11.0525 0.00357006 10.9246C0.017678 10.7967 0.073097 10.6765 0.161836 10.5813L1.66325 8.96386C1.64151 8.65498 1.64151 8.34502 1.66325 8.03614L0.161836 6.41871C0.073097 6.3235 0.017678 6.20329 0.00357006 6.0754C-0.0105379 5.94751 0.0173942 5.81856 0.0833388 5.70714L1.81028 2.79286C1.87615 2.6816 1.97653 2.59356 2.09698 2.54141C2.21743 2.48927 2.35175 2.47569 2.48062 2.50264L4.66734 2.96286C4.93148 2.78921 5.2081 2.63257 5.49592 2.49536L6.18121 0.421357C6.22144 0.299376 6.30024 0.192924 6.40632 0.117239C6.51241 0.0415546 6.64034 0.000516882 6.77181 0H10.2257H10.2269ZM9.77091 1.21429H7.22909L6.52137 3.35993L6.04415 3.587C5.80956 3.69888 5.58309 3.82627 5.36634 3.96829L4.92526 4.25971L2.66254 3.78371L1.39163 5.93057L2.94289 7.60386L2.90551 8.11871C2.8876 8.37261 2.8876 8.62739 2.90551 8.88129L2.94289 9.39614L1.38914 11.0694L2.66129 13.2163L4.92401 12.7415L5.36509 13.0317C5.58184 13.1737 5.80831 13.3011 6.04291 13.413L6.52012 13.6401L7.22909 15.7857H9.7734L10.4836 13.6389L10.9596 13.413C11.1939 13.3014 11.42 13.174 11.6362 13.0317L12.076 12.7415L14.34 13.2163L15.6109 11.0694L14.0584 9.39614L14.0957 8.88129C14.1137 8.62699 14.1137 8.37179 14.0957 8.1175L14.0584 7.60264L15.6121 5.93057L14.34 3.78371L12.076 4.25729L11.6362 3.96829C11.42 3.82599 11.1939 3.69858 10.9596 3.587L10.4836 3.36114L9.77216 1.21429H9.77091ZM8.5 4.85714C9.49137 4.85714 10.4421 5.24094 11.1431 5.92411C11.8441 6.60728 12.238 7.53385 12.238 8.5C12.238 9.46615 11.8441 10.3927 11.1431 11.0759C10.4421 11.7591 9.49137 12.1429 8.5 12.1429C7.50863 12.1429 6.55786 11.7591 5.85686 11.0759C5.15585 10.3927 4.76203 9.46615 4.76203 8.5C4.76203 7.53385 5.15585 6.60728 5.85686 5.92411C6.55786 5.24094 7.50863 4.85714 8.5 4.85714ZM8.5 6.07143C7.83909 6.07143 7.20524 6.3273 6.7379 6.78274C6.27057 7.23819 6.00802 7.8559 6.00802 8.5C6.00802 9.1441 6.27057 9.76181 6.7379 10.2173C7.20524 10.6727 7.83909 10.9286 8.5 10.9286C9.16091 10.9286 9.79476 10.6727 10.2621 10.2173C10.7294 9.76181 10.992 9.1441 10.992 8.5C10.992 7.8559 10.7294 7.23819 10.2621 6.78274C9.79476 6.3273 9.16091 6.07143 8.5 6.07143Z" fill="white"/>
</svg>
