<svg width="73" height="20" viewBox="0 0 73 20" fill="none" xmlns="http://www.w3.org/2000/svg">
<path d="M45.88 19.5885C45.211 19.5885 44.5419 19.3648 44.0351 18.9344L33.5129 9.79426L44.0351 0.654098C44.5419 0.206557 45.211 0 45.9003 0C47.3803 0 48.4751 1.01557 48.4751 2.18607C48.4751 2.73689 48.2318 3.30492 47.7452 3.73525L40.7507 9.79426L47.7452 15.8533C48.2318 16.2836 48.4751 16.8516 48.4751 17.4025C48.4548 18.573 47.36 19.5885 45.88 19.5885Z" fill="white"/>
<path d="M30.5529 19.5885C29.1337 19.5885 27.9781 18.6074 27.9781 17.4025V2.20328C27.9781 0.998359 29.1337 0.0172119 30.5529 0.0172119C31.9721 0.0172119 33.1277 0.998359 33.1277 2.20328V17.4025C33.148 18.6074 31.9923 19.5885 30.5529 19.5885Z" fill="white"/>
<path d="M62.9304 19.5713C56.2603 19.5713 51.131 15.75 51.131 9.79426C51.131 4.44098 55.5304 0 62.9304 0C65.0389 0 67.2893 0.464754 69.0937 1.37705C69.9046 1.79016 70.3507 2.51311 70.3507 3.27049C70.3507 4.40656 69.2761 5.45656 67.7759 5.45656C67.3096 5.45656 66.8636 5.35328 66.4378 5.14672C65.4646 4.68197 64.2685 4.32049 62.9709 4.32049C58.9162 4.32049 56.4022 6.67869 56.4022 9.79426C56.4022 13.1164 59.1594 15.2508 62.9709 15.2508C64.3293 15.2508 65.9715 14.8205 67.0055 14.218V12.2213H65.2822C63.863 12.2213 62.7074 11.2402 62.7074 10.0352C62.7074 8.83033 63.863 7.84918 65.2822 7.84918H69.5803C70.9994 7.84918 72.1551 8.83033 72.1551 10.0352V15.0787C72.1551 15.7328 71.8307 16.3697 71.2833 16.8172C69.1545 18.5902 66.154 19.5713 62.9304 19.5713Z" fill="white"/>
<path d="M5.47397 2.32377C5.47397 3.59754 4.25753 4.64754 2.73699 4.64754C1.23671 4.64754 0 3.61475 0 2.32377C0 1.05 1.21644 0 2.73699 0C4.23726 0 5.47397 1.05 5.47397 2.32377Z" fill="white"/>
<path d="M22.1797 2.32377C22.1797 3.59754 20.9633 4.64754 19.4427 4.64754C17.9425 4.64754 16.726 3.59754 16.726 2.32377C16.726 1.05 17.9425 0 19.463 0C20.9633 0 22.1797 1.05 22.1797 2.32377Z" fill="white"/>
<path d="M11.0899 19.5885C5.04821 19.5885 0.141907 15.4229 0.141907 10.2934V8.81311C0.141907 7.60819 1.29752 6.62704 2.7167 6.62704C4.13588 6.62704 5.2915 7.60819 5.2915 8.81311V10.3451C5.2915 13.0475 7.17697 15.2508 11.0696 15.2508C14.6986 15.2508 16.8477 13.0475 16.8477 10.3451V8.81311C16.8477 7.60819 18.0033 6.62704 19.4225 6.62704C20.8416 6.62704 21.9972 7.60819 21.9972 8.81311V10.2934C22.0378 15.4229 17.1315 19.5885 11.0899 19.5885Z" fill="white"/>
</svg>
